<?xml version="1.0" encoding="iso-8859-1"?>
<!-- Generator: Adobe Illustrator 18.0.0, SVG Export Plug-In . SVG Version: 6.00 Build 0)  -->
<!DOCTYPE svg PUBLIC "-//W3C//DTD SVG 1.1//EN" "http://www.w3.org/Graphics/SVG/1.1/DTD/svg11.dtd">
<svg version="1.1" id="Capa_1" xmlns="http://www.w3.org/2000/svg" xmlns:xlink="http://www.w3.org/1999/xlink" x="0px" y="0px"
	 viewBox="0 0 446.774 446.774" style="enable-background:new 0 0 446.774 446.774;" xml:space="preserve">
<g>
	<path d="M429.475,10.564C422.647,3.752,413.588,0,403.966,0H102.204c-9.623,0-18.683,3.752-25.521,10.575
		C69.87,17.403,66.118,26.463,66.118,36.06l-1.198,331.272H6.723v43.357c0,9.622,3.752,18.682,10.575,25.521
		c6.828,6.813,15.887,10.564,25.51,10.564h301.762c9.623,0,18.683-3.752,25.521-10.575c6.813-6.828,10.564-15.888,10.564-25.487
		l1.07-327.635h58.325V36.085C440.051,26.463,436.299,17.403,429.475,10.564z M42.809,432.774c-5.889,0-11.437-2.3-15.611-6.464
		c-4.175-4.185-6.475-9.732-6.475-15.621v-29.357h287.762v29.357c0,8.313,2.825,15.978,7.566,22.085H42.809z M367.88,36.063
		l-1.224,374.627c0,5.889-2.299,11.437-6.464,15.61c-4.185,4.175-9.732,6.475-15.622,6.475c-12.178,0-22.085-9.907-22.085-22.085
		v-43.357H78.92l1.198-331.247c0-5.889,2.3-11.437,6.464-15.61C90.767,16.3,96.315,14,102.204,14h273.251
		C370.713,20.105,367.88,27.759,367.88,36.063z M426.051,69.077h-44.279l0.108-32.992c0-12.178,9.907-22.085,22.085-22.085
		c5.889,0,11.437,2.3,15.611,6.464c4.175,4.185,6.475,9.732,6.475,15.621V69.077z"/>
	<rect x="111.274" y="90.177" width="220.753" height="14"/>
	<rect x="111.274" y="142.364" width="220.753" height="14"/>
	<rect x="111.274" y="194.553" width="220.753" height="14"/>
	<rect x="111.274" y="246.741" width="220.753" height="14"/>
	<rect x="111.274" y="298.93" width="220.753" height="14"/>
</g>
<g>
</g>
<g>
</g>
<g>
</g>
<g>
</g>
<g>
</g>
<g>
</g>
<g>
</g>
<g>
</g>
<g>
</g>
<g>
</g>
<g>
</g>
<g>
</g>
<g>
</g>
<g>
</g>
<g>
</g>
</svg>
